<svg id="visual" viewBox="0 0 900 600" width="900" height="600" xmlns="http://www.w3.org/2000/svg" xmlns:xlink="http://www.w3.org/1999/xlink" version="1.1"><rect x="0" y="0" width="900" height="600" fill="#494db7"></rect><path d="M0 424L129 387L257 398L386 360L514 373L643 380L771 444L900 355L900 601L771 601L643 601L514 601L386 601L257 601L129 601L0 601Z" fill="#3e58a9"></path><path d="M0 461L129 470L257 422L386 425L514 432L643 479L771 450L900 420L900 601L771 601L643 601L514 601L386 601L257 601L129 601L0 601Z" fill="#33469a"></path><path d="M0 463L129 441L257 458L386 502L514 507L643 509L771 467L900 443L900 601L771 601L643 601L514 601L386 601L257 601L129 601L0 601Z" fill="#29358b"></path><path d="M0 540L129 505L257 489L386 500L514 486L643 513L771 487L900 521L900 601L771 601L643 601L514 601L386 601L257 601L129 601L0 601Z" fill="#1f237b"></path><path d="M0 533L129 564L257 572L386 538L514 564L643 560L771 537L900 534L900 601L771 601L643 601L514 601L386 601L257 601L129 601L0 601Z" fill="#16106b"></path></svg>